# Blender v2.79 (sub 0) OBJ File: ''
# www.blender.org
mtllib coada.mtl
o HORSE_3D_Models.001_HORSE_3D_Models.000
v -0.917585 0.065656 0.436632
v -0.910731 0.061380 0.336407
v -0.935656 0.061837 0.457637
v -0.958676 0.062470 0.433845
v -0.969350 0.062723 0.382779
v -0.951837 0.058204 0.333843
v -0.925801 0.055689 0.313540
v -1.052389 0.870685 0.311424
v -1.061853 0.843816 0.311405
v -1.057000 0.798314 0.324460
v -1.071552 0.807988 0.311469
v -1.059018 0.743985 0.350593
v -1.064527 0.746195 0.325039
v -1.081404 0.753778 0.311657
v -1.070325 0.664990 0.325921
v -1.091072 0.672106 0.311779
v -1.062716 0.662308 0.353481
v -1.059459 0.568812 0.357202
v -1.070084 0.571372 0.326833
v -1.095891 0.577182 0.311625
v -1.059608 0.481284 0.327891
v -1.091273 0.482518 0.311380
v -1.045207 0.481492 0.361387
v -1.023128 0.396022 0.366036
v -1.041111 0.392705 0.329102
v -1.078399 0.389237 0.311078
v -1.016887 0.303608 0.330442
v -1.058121 0.298530 0.310819
v -0.996726 0.308039 0.371120
v -0.970034 0.227163 0.376043
v -0.990831 0.222702 0.331817
v -1.033558 0.217682 0.310707
v -0.967622 0.159166 0.333064
v -1.008321 0.154465 0.310860
v -0.948006 0.163484 0.380069
v -0.930749 0.117042 0.383140
v -0.946924 0.112658 0.334235
v -0.981962 0.108131 0.311395
v -0.928372 0.082810 0.335335
v -0.954421 0.077841 0.312345
v -0.918170 0.087892 0.385213
v -1.054750 0.915575 0.343908
v -1.067258 0.886818 0.321440
v -1.076155 0.896506 0.343252
v -1.081231 0.859023 0.321324
v -1.093189 0.868030 0.343280
v -1.093990 0.821893 0.321467
v -1.107874 0.830426 0.343826
v -1.106372 0.765496 0.321937
v -1.121620 0.772932 0.345203
v -1.119002 0.680292 0.322588
v -1.135625 0.685235 0.347668
v -1.126593 0.581605 0.323174
v -1.144194 0.584122 0.350903
v -1.123932 0.483955 0.323847
v -1.141691 0.485467 0.354722
v -1.112894 0.388683 0.324627
v -1.130762 0.389977 0.358984
v -1.095046 0.297222 0.325577
v -1.113898 0.298455 0.363549
v -1.071895 0.216303 0.326774
v -1.091573 0.217555 0.368168
v -1.044881 0.153188 0.328258
v -1.063852 0.154505 0.372547
v -1.014905 0.107464 0.330003
v -1.032647 0.109246 0.376513
v -0.983870 0.078566 0.331877
v -1.001232 0.081536 0.379807
v -1.066611 0.846784 0.380980
v -1.060278 0.800360 0.372406
v -1.076409 0.811019 0.382495
v -1.067938 0.748323 0.374913
v -1.086438 0.756918 0.385259
v -1.073988 0.667274 0.379472
v -1.096429 0.675447 0.390108
v -1.074102 0.573878 0.385578
v -1.101709 0.580812 0.396701
v -1.064030 0.484043 0.392552
v -1.097643 0.486492 0.404517
v -1.045982 0.395744 0.400343
v -1.085396 0.393603 0.413389
v -1.022254 0.306956 0.408913
v -1.065802 0.303321 0.423124
v -0.996673 0.226348 0.417256
v -1.041903 0.222888 0.432723
v -0.973853 0.163054 0.424170
v -1.017219 0.160016 0.440966
v -0.953445 0.116726 0.429588
v -0.991288 0.113949 0.447760
v -0.935085 0.086998 0.433491
v -0.964044 0.083845 0.453066
v -1.070361 0.888753 0.366801
v -1.084377 0.860985 0.367319
v -1.097205 0.823898 0.368471
v -1.109716 0.767581 0.370820
v -1.122590 0.682530 0.375051
v -1.130537 0.584065 0.380841
v -1.128300 0.486680 0.387711
v -1.117735 0.391703 0.395413
v -1.100388 0.300554 0.403678
v -1.077710 0.219930 0.411795
v -1.051084 0.157057 0.418946
v -1.021401 0.111516 0.424979
v -0.990562 0.082741 0.429726
vt 0.048100 0.467500
vt 0.055000 0.466900
vt 0.064700 0.468200
vt 0.070200 0.469300
vt 0.064700 0.468200
vt 0.055000 0.466900
vt 0.048100 0.467500
vt 0.071000 0.671700
vt 0.065400 0.668400
vt 0.071300 0.654800
vt 0.078000 0.657600
vt 0.078200 0.633500
vt 0.086400 0.636300
vt 0.074600 0.632100
vt 0.068600 0.653700
vt 0.078400 0.607200
vt 0.083300 0.608700
vt 0.093600 0.611300
vt 0.084100 0.584400
vt 0.097100 0.586100
vt 0.077500 0.583400
vt 0.073400 0.559900
vt 0.081700 0.560200
vt 0.097200 0.560900
vt 0.077000 0.535700
vt 0.094200 0.536100
vt 0.067700 0.535600
vt 0.061500 0.513100
vt 0.071100 0.513300
vt 0.088900 0.513800
vt 0.065400 0.495500
vt 0.082400 0.496100
vt 0.056200 0.495300
vt 0.051800 0.482300
vt 0.059700 0.482400
vt 0.074500 0.482800
vt 0.054000 0.473800
vt 0.065200 0.473800
vt 0.048400 0.474100
vt 0.064600 0.692300
vt 0.059900 0.687600
vt 0.065200 0.680800
vt 0.071800 0.685400
vt 0.067100 0.694900
vt 0.075500 0.687900
vt 0.078900 0.676000
vt 0.083400 0.678500
vt 0.087000 0.661500
vt 0.092100 0.663700
vt 0.096800 0.639400
vt 0.102500 0.640900
vt 0.105300 0.613500
vt 0.111500 0.614400
vt 0.109700 0.587500
vt 0.115900 0.588100
vt 0.110600 0.561800
vt 0.116800 0.562300
vt 0.108600 0.536900
vt 0.115100 0.537400
vt 0.103900 0.514600
vt 0.110600 0.515100
vt 0.096600 0.496800
vt 0.103000 0.497300
vt 0.087200 0.483600
vt 0.093000 0.484100
vt 0.076400 0.474800
vt 0.081900 0.475500
vt 0.071300 0.654800
vt 0.065400 0.668400
vt 0.071000 0.671700
vt 0.078000 0.657600
vt 0.078200 0.633500
vt 0.086400 0.636300
vt 0.083300 0.608700
vt 0.093600 0.611300
vt 0.084100 0.584400
vt 0.097100 0.586100
vt 0.081700 0.560200
vt 0.097200 0.560900
vt 0.077000 0.535700
vt 0.094200 0.536100
vt 0.071100 0.513300
vt 0.088900 0.513800
vt 0.065400 0.495500
vt 0.082400 0.496100
vt 0.059700 0.482400
vt 0.074500 0.482800
vt 0.054000 0.473800
vt 0.065200 0.473800
vt 0.071800 0.685400
vt 0.064600 0.692300
vt 0.078900 0.676000
vt 0.087000 0.661500
vt 0.065200 0.680800
vt 0.096800 0.639400
vt 0.105300 0.613500
vt 0.109700 0.587500
vt 0.110600 0.561800
vt 0.108600 0.536900
vt 0.103900 0.514600
vt 0.096600 0.496800
vt 0.087200 0.483600
vt 0.076400 0.474800
vn 0.0841 -0.9906 -0.1077
vn -0.1691 -0.9851 0.0305
vn 0.0629 -0.9774 0.2018
vn 0.0740 -0.9961 0.0476
vn -0.1076 0.0366 -0.9935
vn 0.5999 -0.1097 -0.7925
vn 0.7488 -0.0855 -0.6573
vn 0.1219 -0.0179 -0.9924
vn 0.8060 -0.0322 -0.5910
vn 0.0996 -0.0058 -0.9950
vn 0.9976 -0.0057 0.0686
vn 0.9956 -0.0558 0.0752
vn 0.9929 0.1001 0.0638
vn 0.7679 0.0418 -0.6392
vn 0.0700 0.0038 -0.9975
vn 0.7223 0.1101 -0.6828
vn 0.0442 0.0080 -0.9990
vn 0.9777 0.2019 0.0584
vn 0.9632 0.2632 0.0547
vn 0.6853 0.1522 -0.7122
vn 0.0242 0.0060 -0.9997
vn 0.6727 0.1852 -0.7163
vn 0.0195 0.0038 -0.9998
vn 0.9521 0.3014 0.0524
vn 0.9441 0.3256 0.0508
vn 0.6795 0.2168 -0.7009
vn 0.0198 -0.0010 -0.9998
vn 0.6970 0.2620 -0.6675
vn 0.0141 -0.0186 -0.9997
vn 0.9366 0.3470 0.0495
vn 0.9209 0.3868 0.0472
vn 0.7120 0.3554 -0.6056
vn 0.0092 -0.0612 -0.9981
vn 0.6725 0.4999 -0.5458
vn 0.0380 -0.0832 -0.9958
vn 0.8397 0.5351 0.0921
vn 0.5050 0.5749 -0.6438
vn 0.3514 0.3952 -0.8487
vn -0.6197 0.3214 -0.7160
vn -0.4042 0.1640 -0.8999
vn -0.3777 0.1389 -0.9155
vn -0.5955 0.2559 -0.7615
vn -0.8719 0.4805 -0.0944
vn -0.8971 0.4346 -0.0796
vn -0.6054 0.1671 -0.7782
vn -0.9509 0.2997 -0.0774
vn -0.6119 0.1059 -0.7838
vn -0.9776 0.1969 -0.0747
vn -0.6198 0.0632 -0.7822
vn -0.9897 0.1236 -0.0725
vn -0.6355 0.0095 -0.7720
vn -0.9970 0.0343 -0.0693
vn -0.6536 -0.0550 -0.7548
vn -0.9958 -0.0649 -0.0652
vn -0.6675 -0.1138 -0.7359
vn -0.9873 -0.1464 -0.0614
vn -0.6714 -0.1709 -0.7212
vn -0.9735 -0.2215 -0.0573
vn -0.6723 -0.2504 -0.6967
vn -0.9439 -0.3262 -0.0508
vn -0.6677 -0.3761 -0.6424
vn -0.8789 -0.4753 -0.0401
vn -0.6275 -0.5519 -0.5492
vn -0.7596 -0.6499 -0.0245
vn -0.5447 -0.7243 -0.4228
vn -0.6030 -0.7977 -0.0074
vn -0.4798 -0.8004 -0.3593
vn -0.5088 -0.8609 0.0019
vn 0.6516 -0.0303 0.7580
vn 0.4885 -0.0455 0.8714
vn -0.2403 0.1106 0.9644
vn -0.0139 0.0605 0.9981
vn 0.7182 0.0168 0.6957
vn -0.0358 0.0705 0.9969
vn 0.6750 0.0926 0.7320
vn -0.0651 0.0782 0.9948
vn 0.6247 0.1634 0.7636
vn -0.0907 0.0818 0.9925
vn 0.5846 0.2080 0.7842
vn -0.1103 0.0802 0.9907
vn 0.5717 0.2424 0.7838
vn -0.1152 0.0795 0.9902
vn 0.5805 0.2744 0.7667
vn -0.1153 0.0769 0.9904
vn 0.6021 0.3187 0.7320
vn -0.1218 0.0620 0.9906
vn 0.6258 0.4080 0.6647
vn -0.1286 0.0218 0.9915
vn 0.5782 0.5540 0.5990
vn -0.1044 0.0010 0.9945
vn 0.4164 0.6300 0.6555
vn 0.2352 0.4673 0.8522
vn -0.7596 0.3330 0.5586
vn -0.8068 0.4476 0.3856
vn -0.7046 0.2264 0.6725
vn -0.7122 0.1640 0.6826
vn -0.4940 0.1753 0.8516
vn -0.7197 0.1196 0.6839
vn -0.7341 0.0636 0.6760
vn -0.7497 -0.0025 0.6618
vn -0.7609 -0.0624 0.6458
vn -0.7631 -0.1194 0.6352
vn -0.7612 -0.1990 0.6173
vn -0.7502 -0.3270 0.5747
vn -0.6989 -0.5084 0.5031
vn -0.6011 -0.6893 0.4044
vn -0.5288 -0.7699 0.3572
usemtl 02___Default.002
s off
f 1/1/1 3/2/1 4/3/1
f 4/3/2 5/4/2 6/5/2
f 6/5/3 7/6/3 2/7/3
f 4/3/4 6/5/4 2/7/4
f 1/1/4 4/3/4 2/7/4
s 1
f 11/8/5 10/9/6 13/10/7 14/11/8
f 15/12/9 16/13/10 14/11/8 13/10/7
f 17/14/11 15/12/9 13/10/7 12/15/12
f 15/12/9 17/14/11 18/16/13 19/17/14
f 16/13/10 15/12/9 19/17/14 20/18/15
f 21/19/16 22/20/17 20/18/15 19/17/14
f 23/21/18 21/19/16 19/17/14 18/16/13
f 21/19/16 23/21/18 24/22/19 25/23/20
f 22/20/17 21/19/16 25/23/20 26/24/21
f 27/25/22 28/26/23 26/24/21 25/23/20
f 29/27/24 27/25/22 25/23/20 24/22/19
f 27/25/22 29/27/24 30/28/25 31/29/26
f 28/26/23 27/25/22 31/29/26 32/30/27
f 33/31/28 34/32/29 32/30/27 31/29/26
f 35/33/30 33/31/28 31/29/26 30/28/25
f 33/31/28 35/33/30 36/34/31 37/35/32
f 34/32/29 33/31/28 37/35/32 38/36/33
f 39/37/34 40/38/35 38/36/33 37/35/32
f 41/39/36 39/37/34 37/35/32 36/34/31
f 40/38/35 39/37/34 2/7/37 7/6/38
f 43/40/39 8/41/40 9/42/41 45/43/42
f 44/44/43 43/40/39 45/43/42 46/45/44
f 47/46/45 48/47/46 46/45/44 45/43/42
f 11/8/5 47/46/45 45/43/42 9/42/41
f 47/46/45 11/8/5 14/11/8 49/48/47
f 48/47/46 47/46/45 49/48/47 50/49/48
f 51/50/49 52/51/50 50/49/48 49/48/47
f 16/13/10 51/50/49 49/48/47 14/11/8
f 51/50/49 16/13/10 20/18/15 53/52/51
f 52/51/50 51/50/49 53/52/51 54/53/52
f 55/54/53 56/55/54 54/53/52 53/52/51
f 22/20/17 55/54/53 53/52/51 20/18/15
f 55/54/53 22/20/17 26/24/21 57/56/55
f 56/55/54 55/54/53 57/56/55 58/57/56
f 59/58/57 60/59/58 58/57/56 57/56/55
f 28/26/23 59/58/57 57/56/55 26/24/21
f 59/58/57 28/26/23 32/30/27 61/60/59
f 60/59/58 59/58/57 61/60/59 62/61/60
f 63/62/61 64/63/62 62/61/60 61/60/59
f 34/32/29 63/62/61 61/60/59 32/30/27
f 63/62/61 34/32/29 38/36/33 65/64/63
f 64/63/62 63/62/61 65/64/63 66/65/64
f 67/66/65 68/67/66 66/65/64 65/64/63
f 40/38/35 67/66/65 65/64/63 38/36/33
f 67/66/65 40/38/35 7/6/38 6/5/67
f 68/67/66 67/66/65 6/5/67 5/4/68
f 72/68/69 70/69/70 71/70/71 73/71/72
f 74/72/73 72/68/69 73/71/72 75/73/74
f 76/74/75 74/72/73 75/73/74 77/75/76
f 74/72/73 76/74/75 18/16/13 17/14/11
f 72/68/69 74/72/73 17/14/11 12/15/12
f 78/76/77 76/74/75 77/75/76 79/77/78
f 80/78/79 78/76/77 79/77/78 81/79/80
f 78/76/77 80/78/79 24/22/19 23/21/18
f 76/74/75 78/76/77 23/21/18 18/16/13
f 82/80/81 80/78/79 81/79/80 83/81/82
f 84/82/83 82/80/81 83/81/82 85/83/84
f 82/80/81 84/82/83 30/28/25 29/27/24
f 80/78/79 82/80/81 29/27/24 24/22/19
f 86/84/85 84/82/83 85/83/84 87/85/86
f 88/86/87 86/84/85 87/85/86 89/87/88
f 86/84/85 88/86/87 36/34/31 35/33/30
f 84/82/83 86/84/85 35/33/30 30/28/25
f 90/88/89 88/86/87 89/87/88 91/89/90
f 1/1/91 90/88/89 91/89/90 3/2/92
f 88/86/87 90/88/89 41/39/36 36/34/31
f 93/90/93 92/91/94 44/44/43 46/45/44
f 94/92/95 93/90/93 46/45/44 48/47/46
f 95/93/96 94/92/95 48/47/46 50/49/48
f 94/92/95 95/93/96 73/71/72 71/70/71
f 93/90/93 94/92/95 71/70/71 69/94/97
f 96/95/98 95/93/96 50/49/48 52/51/50
f 97/96/99 96/95/98 52/51/50 54/53/52
f 96/95/98 97/96/99 77/75/76 75/73/74
f 95/93/96 96/95/98 75/73/74 73/71/72
f 98/97/100 97/96/99 54/53/52 56/55/54
f 99/98/101 98/97/100 56/55/54 58/57/56
f 98/97/100 99/98/101 81/79/80 79/77/78
f 97/96/99 98/97/100 79/77/78 77/75/76
f 100/99/102 99/98/101 58/57/56 60/59/58
f 101/100/103 100/99/102 60/59/58 62/61/60
f 100/99/102 101/100/103 85/83/84 83/81/82
f 99/98/101 100/99/102 83/81/82 81/79/80
f 102/101/104 101/100/103 62/61/60 64/63/62
f 103/102/105 102/101/104 64/63/62 66/65/64
f 102/101/104 103/102/105 89/87/88 87/85/86
f 101/100/103 102/101/104 87/85/86 85/83/84
f 104/103/106 103/102/105 66/65/64 68/67/66
f 4/3/107 104/103/106 68/67/66 5/4/68
f 104/103/106 4/3/107 3/2/92 91/89/90
f 103/102/105 104/103/106 91/89/90 89/87/88
l 42 44
